<?xml version="1.0" encoding="utf-8"?>
<!-- Generator: Adobe Illustrator 17.1.0, SVG Export Plug-In . SVG Version: 6.00 Build 0)  -->
<!DOCTYPE svg PUBLIC "-//W3C//DTD SVG 1.1//EN" "http://www.w3.org/Graphics/SVG/1.1/DTD/svg11.dtd">
<svg version="1.1" id="Layer_1" xmlns="http://www.w3.org/2000/svg" xmlns:xlink="http://www.w3.org/1999/xlink" x="0px" y="0px"
	 viewBox="0 0 300 300" enable-background="new 0 0 300 300" xml:space="preserve">
<g>
	<g>
		<path fill="#FFFFFF" d="M150,300c-55.1,0-100-44.9-100-100h22.2c0,42.9,34.9,77.8,77.8,77.8s77.8-34.9,77.8-77.8
			c0-21.2-8.3-41.1-23.4-56c-14.6-14.4-33.9-22.2-54.2-21.8l-33.5,0V66.7h111.1v22.2h-88.9V100H150c26.2-0.4,51,9.6,69.9,28.2
			c19.4,19.1,30.1,44.6,30.1,71.8C250,255.1,205.1,300,150,300z"/>
	</g>
	<g>
		<path fill="#FFFFFF" d="M150,266.7c-36.8,0-66.7-29.9-66.7-66.7h22.2c0,24.5,19.9,44.4,44.4,44.4c24.5,0,44.4-19.9,44.4-44.4
			c0-23.2-18.5-41.4-45.1-44.4H83.3V33.3h144.4v22.2H105.6v77.8l45.6,0.1c37.9,4.1,65.5,32.1,65.5,66.6
			C216.7,236.8,186.8,266.7,150,266.7z"/>
	</g>
	<g>
		<path fill="#FFFFFF" d="M150,233.3c-18.4,0-33.3-15-33.3-33.3h22.2c0,6.1,5,11.1,11.1,11.1c6.1,0,11.1-5,11.1-11.1
			c0-6.1-5-11.1-11.1-11.1H50V0h177.8v22.2H72.2v144.4H150c18.4,0,33.3,15,33.3,33.3S168.4,233.3,150,233.3z"/>
	</g>
</g>
</svg>
