<?xml version="1.0" encoding="utf-8"?>
<!-- Generator: Adobe Illustrator 17.1.0, SVG Export Plug-In . SVG Version: 6.00 Build 0)  -->
<!DOCTYPE svg PUBLIC "-//W3C//DTD SVG 1.1//EN" "http://www.w3.org/Graphics/SVG/1.1/DTD/svg11.dtd">
<svg version="1.1" id="Layer_1" xmlns="http://www.w3.org/2000/svg" xmlns:xlink="http://www.w3.org/1999/xlink" x="0px" y="0px"
	 viewBox="0 0 300 300" enable-background="new 0 0 300 300" xml:space="preserve">
<linearGradient id="SVGID_1_" gradientUnits="userSpaceOnUse" x1="150" y1="300" x2="150" y2="-3.491550e-09">
	<stop  offset="0" style="stop-color:#EFEFE9"/>
	<stop  offset="1" style="stop-color:#FFFFFF"/>
</linearGradient>
<path fill="url(#SVGID_1_)" d="M150,300c-55.1,0-100-44.9-100-100h22.2c0,42.9,34.9,77.8,77.8,77.8s77.8-34.9,77.8-77.8
	c0-21.2-8.3-41.1-23.4-56c-14.6-14.4-33.9-22.2-54.2-21.8l-33.5,0V66.7h111.1v22.2h-88.9V100H150c26.2-0.4,51,9.6,69.9,28.2
	c19.4,19.1,30.1,44.6,30.1,71.8C250,255.1,205.1,300,150,300z M216.7,200c0-34.5-27.5-62.5-65.5-66.6l-45.6-0.1V55.6h122.2V33.3
	H83.3v122.2h66.1c26.6,3.1,45.1,21.3,45.1,44.4c0,24.5-19.9,44.4-44.4,44.4c-24.5,0-44.4-19.9-44.4-44.4H83.3
	c0,36.8,29.9,66.7,66.7,66.7C186.8,266.7,216.7,236.8,216.7,200z M183.3,200c0-18.4-15-33.3-33.3-33.3H72.2V22.2h155.6V0H50v188.9
	h100c6.1,0,11.1,5,11.1,11.1c0,6.1-5,11.1-11.1,11.1c-6.1,0-11.1-5-11.1-11.1h-22.2c0,18.4,15,33.3,33.3,33.3S183.3,218.4,183.3,200
	z"/>
</svg>
