<?xml version="1.0" encoding="utf-8"?>
<!-- Generator: Adobe Illustrator 17.1.0, SVG Export Plug-In . SVG Version: 6.00 Build 0)  -->
<!DOCTYPE svg PUBLIC "-//W3C//DTD SVG 1.1//EN" "http://www.w3.org/Graphics/SVG/1.1/DTD/svg11.dtd">
<svg version="1.1" id="Layer_1" xmlns="http://www.w3.org/2000/svg" xmlns:xlink="http://www.w3.org/1999/xlink" x="0px" y="0px"
	 viewBox="0 0 340 340" enable-background="new 0 0 340 340" xml:space="preserve">
<g>
	<g>
		<g>
			<polygon fill="#FFFFFF" points="75.7,96.8 75,96.8 74.2,96.9 73.5,97 72.8,97 72,97.1 71.3,97 70.6,97.1 69.8,97.2 69.1,97.2 
				68.4,97.3 67.6,97.3 66.9,97.4 66.1,97.4 65.4,97.5 64.7,97.6 63.9,97.6 63.2,97.7 62.5,97.8 61.7,97.7 61,97.9 60.2,97.8 
				59.5,97.9 58.7,98 57.9,98 58.2,98.7 58.4,99.3 58.8,99.9 58.9,100.5 59,100.7 59.7,100.6 60.4,100.6 61.1,100.5 61.8,100.4 
				62.5,100.4 63.2,100.4 63.9,100.4 64.6,100.4 65.3,100.4 66,100.7 66.8,100.8 67.5,101.1 68.2,101.5 68.8,102 69.4,102.5 
				70,103.1 70.4,103.7 70.9,104.4 71.3,105 71.7,105.6 72.2,106.2 72.4,106.9 72.9,107.5 73.1,108.2 73.4,108.9 73.6,109.6 
				74,110.3 74,111 74.3,111.7 74.6,112.4 74.7,113.1 75,113.8 75.1,114.6 75.8,114.6 76.6,114.4 77.4,114.4 77.4,113.7 77.2,113 
				77.2,112.2 77.1,111.5 77.1,110.8 77,110 76.9,109.3 76.8,108.6 76.7,107.8 76.8,107.1 76.6,106.4 76.6,105.6 76.5,104.9 
				76.4,104.2 76.4,103.4 76.3,102.7 76.2,101.9 76.1,101.2 76,100.5 75.9,99.7 76,99 75.9,98.2 75.9,97.5 			"/>
		</g>
		<g>
			<polygon fill="#FFFFFF" points="56.5,98.4 55.6,98.5 54.9,98.4 54.1,98.3 53.4,98.6 52.7,98.5 51.9,98.4 51.2,98.3 50.4,98.2 
				49.7,98.6 49,98.4 48.2,98.3 47.5,98.6 46.8,98.2 46,98.4 45.3,98.3 44.5,98.5 43.8,98.4 43.1,98.3 42.3,98.4 41.6,98.4 
				40.9,98.2 40.1,98.4 39.4,98.4 38.7,98.2 37.9,98.2 37.2,98.4 36.4,98.6 35.7,98.5 35,98.4 34.2,98.7 33.5,98.3 32.7,98.5 
				32,98.6 31.3,98.4 30.5,98.5 29.8,98.7 29,98.3 28.3,98.7 27.6,98.2 26.8,98.3 26.1,98.4 25.3,98.4 24.6,98.4 23.9,98.6 
				23.1,98.5 22.4,98.4 21.6,98.6 20.9,98.4 20.2,98.6 19.4,98.5 18.7,98.4 17.9,98.4 17.2,98.4 16.5,98.2 15.7,98.2 15,98.6 
				14.2,98.6 13.5,98.2 12.7,98.7 12,98.5 11.3,98.2 10.5,98.2 9.8,98.4 9,98.2 8.3,98.5 7.5,98.4 6.8,98.7 6,98.2 5.4,98.6 
				5.2,99.2 5.5,99.9 5.4,100.7 5.2,101.4 5.1,102.1 5.4,102.9 4.9,103.6 5.4,104.4 4.9,105.1 5,105.9 4.9,106.6 5.3,107.4 
				4.9,108.1 5.2,108.9 5.1,109.6 4.9,110.4 5.2,111.2 4.9,112 5.7,112.3 6.5,112.1 7.2,112.4 8,112.9 8.2,112 8.6,111.2 9,110.5 
				9,109.6 9.1,108.9 9.3,108.2 9.7,107.6 10,106.9 10.1,106.1 10.5,105.4 10.9,104.7 11.6,104.3 11.8,103.5 12.7,103.3 13.1,102.7 
				13.7,102 14.5,102.1 15.2,101.9 15.9,101.7 16.6,101.5 17.3,101.2 18.1,101.2 18.8,101 19.5,101.3 20.2,101 21,101.4 21.7,101.1 
				22.4,101.3 23.2,101.1 23.9,101.1 24.6,101.3 25.4,101.3 26.1,101.2 26.9,101.3 27.6,101.4 28.3,101.2 29.1,101.3 29.8,101.1 
				30.6,101 31.3,101.3 32.1,100.9 32.8,101.3 33.6,101.4 34.3,101 35.1,101 35.7,101.3 36,101.9 36,102.6 35.8,103.4 35.9,104.1 
				35.6,104.9 35.6,105.6 35.9,106.3 36,107.1 35.9,107.8 35.9,108.6 35.7,109.3 35.6,110.1 35.9,110.8 36,111.6 35.7,112.3 
				35.9,113 36,113.8 35.7,114.5 35.6,115.3 35.8,116 35.6,116.8 35.7,117.5 35.9,118.3 35.9,119 35.9,119.7 35.9,120.5 35.6,121.2 
				35.9,122 36,122.7 35.8,123.5 35.9,124.2 35.7,125 36,125.7 35.7,126.5 35.9,127.2 35.9,127.8 36.2,127.3 36.7,126.8 37.5,126.5 
				38,126 38.3,125.3 38.8,124.8 39.4,124.3 39.9,123.7 40.4,123.3 40.9,122.7 41.4,122.1 41.9,121.6 42.3,121 42.7,120.4 
				43.3,119.9 44,119.6 44.2,118.8 45,118.5 45.6,117.9 45.4,117.1 45.6,116.3 45.5,115.6 45.6,114.8 45,114 45,113.3 45,112.5 
				44.9,111.8 45.4,111 45.2,110.3 45.1,109.5 45.1,108.8 45.3,108 45.3,107.2 45.4,106.5 45.2,105.7 45.6,105 45.4,104.2 
				45.3,103.4 45.3,102.7 45.3,101.9 45.3,101.1 46.1,100.9 46.9,101.2 47.7,101.4 48.4,101.3 49.2,101.4 49.9,101 50.7,101.4 
				51.5,101.1 52.2,101.1 53,101.3 53.8,101.4 54.5,101 55.3,101.4 56.1,101.2 55.7,100.7 55.6,100.1 55.7,99.2 			"/>
		</g>
		<g>
			<g>
				<g>
					<polygon fill="#FFFFFF" points="54.4,168.5 53.7,168.3 52.9,168.4 52.1,168.5 51.4,168.2 50.6,168.3 49.9,168.1 49.2,167.7 
						48.5,167.5 47.8,167.1 47.2,166.6 46.6,166.1 46.4,165.3 46,164.6 45.6,163.9 45.4,163.2 45.3,162.4 45.4,161.7 45.5,160.9 
						45.3,160.2 45,159.5 45.3,158.7 45.2,158 45,157.2 45.1,156.5 45.1,155.7 45,155 45,154.3 45,153.5 45.1,152.8 45,152 
						45.2,151.4 45.2,150.9 44.6,151.2 43.9,151.4 43.1,151.4 42.5,151.7 41.8,151.9 41,152 40.3,152.2 39.7,152.4 39,152.6 
						38.3,152.8 37.6,153.2 36.9,153.4 36.3,153.8 35.6,153.9 35.5,154.6 35.3,155.3 35.5,156 35.4,156.8 35.3,157.5 35.1,158.2 
						35.2,159 35.1,159.7 35,160.4 34.8,161.1 35,161.9 34.7,162.6 34.6,163.3 34.4,164 34,164.7 33.8,165.4 33.3,166 32.6,166.2 
						32,166.7 31.3,167 30.7,167.4 29.9,167.5 29.2,167.3 28.4,167.5 27.7,167.5 26.9,167.6 26.2,167.6 25.4,167.6 24.7,167.6 
						24,167.5 23.2,167.5 22.5,167.4 22.7,168 22.9,168.6 22.9,169.4 22.7,170.2 23.5,170.1 24.2,170.4 25,170.1 25.7,170.1 
						26.4,170.2 27.2,170.3 27.9,170.2 28.6,170.4 29.4,170.5 30.1,170.4 30.9,170.3 31.6,170.3 32.3,170.4 33.1,170.4 33.8,170.5 
						34.5,170.5 35.3,170.5 36,170.4 36.8,170.6 37.5,170.7 38.2,170.6 39,170.7 39.7,170.8 40.4,170.6 41.2,170.7 41.9,170.8 
						42.7,170.9 43.4,171 44.1,170.7 44.9,170.8 45.6,171 46.4,170.8 47.1,171.1 47.8,171 48.6,171 49.3,170.9 50,171.1 50.8,171.1 
						51.5,171.1 52.3,171.1 53,171.3 53.7,171.2 54.5,171.2 55.2,171.4 56,171.4 56.7,171.2 57.5,171.2 58.2,171.2 58.2,170.6 
						58.1,169.9 58.3,169.2 58.3,168.6 57.5,168.7 56.8,168.5 56,168.6 55.2,168.6 					"/>
				</g>
				<g>
					<polygon fill="#FFFFFF" points="45.4,148.2 45.2,147.4 45.3,146.7 45.3,146 45.3,145.3 45.3,144.5 45.5,143.8 45.4,143.1 
						45.6,142.3 45.6,141.6 45.6,140.9 45.6,140.2 45.7,139.4 45.6,138.7 45.5,138 45.5,137.2 45.5,136.5 45.8,135.7 45.5,135.8 
						45.3,135.1 44.9,134.4 44.8,133.6 44.5,132.9 44.1,132.2 43.7,131.6 44.1,130.9 44.4,130.2 44.6,129.5 45,128.8 45.3,128.1 
						45.7,127.4 45.9,128.3 46,127.5 46,126.7 46.1,126 46,125.3 46.2,124.6 46.1,123.8 45.4,124.2 45,124.9 44.3,125.2 43.7,125.6 
						43.2,126.2 42.6,126.6 41.9,127 41.4,127.5 40.9,128 40.3,128.3 40.8,128 41.4,127.5 41.9,127 42.3,126.4 42.9,126 43.4,125.5 
						44,125.1 44.4,124.5 45.1,124.1 45.6,123.6 46,123 46,122.2 46,121.3 46.2,120.4 45.6,120.9 44.9,121.4 44.5,122.1 43.8,122.3 
						43.2,122.8 42.8,123.5 42.1,123.9 41.5,124.3 41,124.9 40.5,125.5 39.8,125.9 39.2,126.3 38.6,126.8 38.1,127.4 37.4,127.8 
						37,128.5 36.3,128.8 36.5,129.6 36.2,130.4 36.4,131.1 36.1,131.8 36.1,132.6 36.2,133.3 36.1,134.1 36.1,134.8 36,135.6 
						36.2,136.3 36,137.1 36.2,137.8 36.1,138.6 36,139.3 36,140.1 36.1,140.8 35.9,141.6 36,142.3 36,143.1 35.8,143.8 35.8,144.6 
						35.8,145.3 35.8,146.1 35.9,146.8 35.6,147.6 35.6,148.3 35.7,149.1 35.8,149.8 35.7,150.6 35.6,151.3 36.4,151.2 37,150.9 
						37.7,150.5 38.4,150.5 39.1,150.2 39.7,149.9 40.5,149.7 41.1,149.5 41.8,149.2 42.5,149 43.2,148.8 43.9,148.6 44.6,148.3 
											"/>
				</g>
			</g>
		</g>
		<g>
			<polygon fill="#FFFFFF" points="158.7,113.7 158.6,113 158.6,112.3 158.6,111.6 158.6,110.9 158.6,110.2 158.6,109.5 
				158.6,108.8 158.6,108 158,108.5 157.4,108.9 156.8,109.4 156.2,109.8 155.6,110.2 155,110.6 154.4,111.1 153.7,111.4 153.2,112 
				152.5,112.3 152,112.8 151.4,113.2 150.8,113.7 150.1,114.1 149.5,114.5 149,115 148.3,115.4 147.7,115.9 147.7,116.2 
				147.7,116.9 147.7,117.6 147.7,118.3 147.7,119.1 147.7,119.8 147.7,120.5 147.7,121.3 148.3,120.8 148.9,120.4 149.5,120 
				150.1,119.6 150.7,119.1 151.3,118.7 151.9,118.3 152.5,117.9 153.1,117.5 153.8,117.1 154.3,116.7 155,116.3 155.6,115.9 
				156.2,115.4 156.8,115 157.4,114.6 158,114.1 			"/>
		</g>
		<g>
			<polygon fill="#FFFFFF" points="172.3,98.4 171.7,98.9 171,99.3 170.3,99.8 169.7,100.2 169,100.6 169.7,100.6 170.4,100.7 
				171.1,100.7 171.8,100.8 172.5,100.8 173.3,100.8 174,100.9 174.7,101 175.4,101 176.1,101 176.8,101.2 177.4,100.6 178.1,100.2 
				178.7,99.8 179.4,99.4 180,98.8 180.6,98.4 179.9,98.4 179.1,98.4 178.4,98.4 177.6,98.5 176.9,98.4 176.1,98.4 175.4,98.5 
				174.6,98.4 173.8,98.4 173.1,98.5 			"/>
		</g>
		<g>
			<polygon fill="#FFFFFF" points="180.1,101.5 180.8,101.7 181.5,102 182.1,102.2 182.8,102.6 183.4,103 183.9,103.4 184.5,103.9 
				184.9,104.4 185.5,104.8 186,105.4 186.4,106 186.7,106.6 187.1,107.2 187.4,107.9 187.7,108.6 188.1,109.2 188.4,109.9 
				188.6,110.6 188.9,111.2 189.1,111.9 189.3,112.6 189.4,113.3 189.7,114 189.8,114.7 189.9,115.5 190.2,116.1 191,116.1 
				191.8,116.2 192.7,116.2 192.6,115.4 192.4,114.7 192.5,113.9 192.4,113.2 192.4,112.5 192.3,111.7 192.2,111 192.1,110.3 
				192.1,109.5 191.9,108.8 192,108 191.9,107.3 191.8,106.6 191.7,105.8 191.5,105.1 191.5,104.4 191.5,103.6 191.4,102.9 
				191.3,102.1 191.2,101.4 191.1,100.7 191.1,99.9 191.1,99.2 190.9,98.4 190.2,98.4 189.5,98.3 188.8,98.5 188,98.4 187.3,98.4 
				186.6,98.4 185.8,98.4 185.1,98.5 184.3,98.4 183.7,98.8 183.1,99.3 182.5,99.8 181.9,100.1 181.3,100.7 180.7,101.1 			"/>
		</g>
		<g>
			<polygon fill="#FFFFFF" points="148,105.2 148,105.9 148,106.6 148.1,107.3 148.1,108.1 148.3,108.8 148.3,109.5 148.3,110.2 
				148.3,110.9 148.3,111.7 148.2,112.4 148.2,113.1 148.4,113.8 148.2,114.5 148.2,115.2 148.8,114.8 149.4,114.3 150,113.9 
				150.5,113.4 151.1,112.9 151.7,112.6 152.3,112 152.9,111.7 153.5,111.2 154,110.6 154.6,110.2 155.1,109.6 155.7,109.2 
				156.4,108.9 156.8,108.3 157.5,108 158,107.4 158.7,107 158.7,106.2 158.7,105.5 158.7,104.8 158.7,104 158.6,103.3 158.5,102.6 
				158.7,101.9 158.6,101.1 159.4,101.2 160.1,101 160.9,101.2 161.6,101.1 162.4,101.1 163.1,101.2 163.9,101.2 164.6,101.1 
				165.4,101.3 166.2,101.2 166.9,101.1 167.4,100.7 168.1,100.4 168.6,99.9 169,99.3 169.4,98.8 170.1,98.4 169.3,98.4 168.5,98.3 
				167.8,98.4 167.1,98.5 166.3,98.5 165.6,98.6 164.8,98.3 164.1,98.3 163.4,98.3 162.6,98.3 161.9,98.4 161.1,98.3 160.4,98.4 
				159.6,98.4 158.9,98.5 158.1,98.5 157.4,98.5 156.7,98.5 155.9,98.5 155.2,98.5 154.4,98.4 153.7,98.5 152.9,98.4 152.2,98.3 
				151.5,98.3 150.7,98.5 150,98.3 149.2,98.5 148.5,98.4 147.7,98.5 147,98.5 146.2,98.5 145.5,98.4 144.8,98.4 144,98.3 
				143.3,98.5 142.5,98.5 141.8,98.5 141,98.3 140.3,98.4 139.5,98.4 139.4,99.1 139.6,99.8 139.5,100.5 140.3,100.5 141,100.4 
				141.8,100.5 142.5,100.5 143.2,100.8 144,100.7 144.7,101 145.4,101.3 146.2,101.4 146.7,101.9 147,102.6 147.4,103.2 
				147.5,103.8 147.9,104.5 			"/>
		</g>
		<g>
			<polygon fill="#FFFFFF" points="194,147.5 193.9,148.3 193.7,149 193.3,149.7 193.1,150.4 192.9,151.1 192.7,151.8 192.6,152.6 
				192.4,153.3 192.1,154 191.9,154.7 191.5,155.3 191.2,156 190.8,156.6 190.5,157.3 190.2,158 189.8,158.6 189.6,159.3 189.2,160 
				188.7,160.5 188.1,161 187.7,161.7 187.3,162.3 186.8,162.8 186.2,163.3 185.7,163.8 185.2,164.4 184.6,164.9 183.9,165.3 
				184.7,165.4 185.3,165.6 185.5,166.3 185.5,167 185.6,167.8 185.9,168.5 186,169.2 186.2,170 186.3,170.6 186.9,170.7 
				187.6,170.8 188.4,170.8 189.1,170.8 189.8,170.8 190.6,170.7 191.3,170.8 192,170.8 192.8,170.8 193.5,170.8 194.3,170.8 
				194.9,170.7 195,170 195.1,169.2 195.2,168.5 195.2,167.7 195.3,167 195.2,166.2 195.3,165.5 195.4,164.8 195.4,164 195.6,163.3 
				195.5,162.5 195.5,161.8 195.6,161 195.7,160.3 195.8,159.5 195.8,158.8 195.9,158 195.8,157.3 195.9,156.5 195.9,155.8 196,155 
				196,154.3 196.2,153.6 196.3,152.8 196.2,152 196.3,151.3 196.3,150.5 196.4,149.8 196.4,149 196.5,148.3 196.5,147.5 
				195.7,147.6 194.8,147.5 			"/>
		</g>
		<g>
			<g>
				<g>
					<polygon fill="#FFFFFF" points="172.2,167 171.4,167.1 170.6,167 169.8,167.2 169.1,167.1 168.3,166.9 167.5,166.9 
						166.7,167.2 166,166.9 165.3,166.9 164.5,167 163.8,167 163.1,166.8 162.4,167.1 161.6,166.9 160.9,166.9 160.2,166.7 
						159.4,166.7 158.8,166.3 158.1,166.1 157.5,165.5 157.5,164.7 156.9,164.1 157,163.4 156.6,162.7 156.5,162 156.6,161.3 
						156.4,160.6 156.1,159.9 156.2,159.1 156.2,158.4 156,157.7 156.2,157 156.1,156.3 156,155.5 155.9,154.8 155.8,154.1 
						155.8,153.4 156,152.7 155.7,153.5 155.3,154.2 155,154.9 154.6,155.5 154.3,156.2 153.8,156.9 153.4,156.2 153,155.6 
						152.8,154.8 152.1,154.4 151.7,153.7 151.3,153 152.1,152.5 152.4,151.8 152.8,151.2 153.3,150.5 153.8,149.9 154.6,150 
						155.4,149.8 156.2,150.2 156.9,149.9 156.8,149.2 156.9,148.5 157,147.7 157.1,147 157,146.2 156.9,145.6 156.3,145.8 
						155.6,145.8 154.9,146 154.1,146.2 153.4,146.4 152.7,146.6 152.1,147.1 151.3,147.2 150.6,147.4 150,147.8 149.3,148 
						148.5,148.1 147.9,148.5 147.1,148.5 146.5,149 145.7,149.2 144.9,149.3 145.2,150.2 145.1,151 144.9,151.9 144.9,152.6 
						145.2,153.4 145.1,154.2 145.1,154.9 144.9,155.7 145.1,156.4 145.1,157.2 145.2,158 144.9,158.7 144.9,159.5 144.9,160.2 
						144.9,161 145,161.7 144.9,162.5 144.8,163.2 144.6,163.9 144.4,164.6 143.9,165.1 143.5,165.7 143,166.2 142.4,166.8 
						141.6,166.8 140.8,166.8 140.1,166.9 139.3,167 138.5,166.9 137.7,167 137,167 136.2,167.1 135.6,167.1 134.9,166.9 135,167.8 
						135,168.6 135.1,169.4 135,170.2 134.9,171.1 135.7,171.1 136.5,171 137.2,170.9 137.9,170.8 138.7,170.9 139.4,171.2 
						140.1,171.1 140.9,171.1 141.6,171.1 142.3,171.2 143.1,171.2 143.8,171 144.5,170.8 145.3,170.9 146,171.2 146.7,171.1 
						147.5,171.2 148.2,171.1 149,170.9 149.7,170.9 150.4,170.9 151.2,170.9 151.9,171 152.6,171 153.4,171.2 154.1,171.1 
						154.8,171.2 155.6,171.1 156.3,170.8 157.1,170.8 157.8,171 158.5,171.2 159.3,171.1 160,171 160.8,170.9 161.5,171 
						162.2,171.1 163,170.9 163.7,170.8 164.4,171 165.2,171 165.9,171.2 166.6,170.9 167.4,171.2 168.1,171.1 168.9,170.9 
						169.6,170.9 170.3,170.8 171.1,170.8 171.8,171 172.6,171.1 173.3,171.1 174.1,171.2 174.8,171.1 175.5,170.9 175.4,170.3 
						175.3,169.6 175.1,168.9 174.8,168.2 174.6,167.5 173.7,167.6 172.9,167.2 					"/>
				</g>
				<g>
					<polygon fill="#FFFFFF" points="174.7,120 174.7,120.7 174.8,121.5 174.7,122.2 174.7,122.9 174.8,123.7 174.6,124.4 
						174.6,125.2 174.4,125.9 174.3,126.6 173.9,127.2 173.7,127.9 173.2,128.4 172.7,129 172,129.4 171.3,129.6 170.6,129.8 
						169.8,130 169.1,129.9 168.3,129.9 167.6,130 166.8,129.9 166.1,130.1 165.3,130 164.6,129.8 163.8,129.9 163.1,130.1 
						162.3,130.1 161.6,129.8 160.8,129.9 160,129.9 159.3,129.9 158.5,129.9 157.8,130 157,130 157.1,129.3 156.9,128.5 
						156.9,127.8 157.1,127 156.9,126.3 156.9,125.6 157,124.8 156.9,124.1 157,123.3 157,122.6 157.1,121.9 156.9,121.1 
						156.9,120.4 157.2,119.6 156.9,118.9 157,118.2 156.4,118.5 155.7,118.8 155.3,119.5 154.5,119.7 154.1,120.3 153.5,120.7 
						152.8,121 152.2,121.4 151.5,121.7 150.9,122.1 150.4,122.6 149.8,123.1 149.3,123.6 148.6,123.9 147.9,124.2 147.4,124.8 
						146.7,125 146.3,125.7 145.5,125.9 144.9,126.4 145.1,127.1 144.9,127.9 145.1,128.6 145,129.4 144.9,130.1 145,130.9 
						145.1,131.6 145.1,132.3 145.2,133.1 145.1,133.8 145,134.6 145.1,135.3 144.9,136.1 145.1,136.8 144.9,137.6 145.1,138.3 
						145,139 145.2,139.8 145.2,140.5 145.1,141.3 145,142 145,142.8 144.9,143.5 145.1,144.3 144.9,145 145.1,145.8 144.9,146.5 
						144.9,147.3 145,148 145.6,147.6 146.3,147.2 147.1,147 147.7,146.6 148.3,146.1 149,145.8 149.7,145.5 150.2,144.9 151,144.6 
						151.7,144.5 152.3,144 153,143.6 153.6,143.1 154.3,142.8 155,142.5 155.7,142.2 156.3,141.6 157.1,141.4 156.9,140.6 
						157.1,139.8 156.8,139.1 156.9,138.3 157.1,137.6 157.1,136.8 157,136 157.1,135.3 157,134.5 156.9,133.8 157,133 157.7,132.8 
						158.4,132.9 159.1,133 159.8,133.1 160.5,132.9 161.3,133.1 162,133 162.7,133 163.4,133.1 164.1,133.1 164.9,132.9 
						165.6,133.1 166.4,133 167.1,133.3 167.8,133.4 168.6,133.4 169.3,133.6 170.1,133.6 170.8,133.8 171.4,134.1 172,134.5 
						172.5,135 173,135.5 173.4,136.1 173.7,136.7 174.2,137.4 174.3,138.2 174.3,138.9 174.4,139.7 174.7,140.4 174.6,141.2 
						174.6,141.9 174.7,142.7 174.7,143.5 174.6,144.2 174.8,144.9 175.6,145 176.4,144.9 177.2,145 177.9,144.9 178,144.3 
						177.8,143.5 177.9,142.8 178.1,142.1 177.9,141.3 178.1,140.6 178,139.9 178,139.1 178.1,138.4 178.1,137.7 177.9,136.9 
						178,136.2 178.1,135.5 178,134.7 178.2,134 178.1,133.3 178,132.5 177.9,131.8 177.9,131.1 177.9,130.3 177.9,129.6 
						177.8,128.9 177.9,128.1 177.8,127.4 177.9,126.7 177.8,125.9 177.9,125.2 178,124.4 177.9,123.7 178.1,123 177.8,122.2 
						177.9,121.5 177.9,120.7 178.1,119.9 177.2,120.1 176.4,120 175.6,120.1 					"/>
				</g>
			</g>
		</g>
		<g>
			<g>
				<g>
					<polygon fill="#FFFFFF" points="310.1,135.2 309.7,134.6 309.3,134.1 308.8,133.5 308.4,133 308,132.4 307.4,132.8 
						306.7,133.1 306.1,133.5 305.4,133.9 304.8,134.3 304.2,134.6 303.5,135 302.9,135.4 302.3,135.7 301.6,136.1 301,136.4 
						300.3,136.8 299.7,137.2 299,137.5 299.4,138.1 299.9,138.7 300.3,139.3 300.7,139.8 301.2,140.4 301.6,140.9 302,141.5 
						302.5,142.1 302.9,142.7 303.3,143.2 303.8,143.8 304.2,144.4 304.6,143.8 305,143.2 305.3,142.5 305.8,141.9 306.1,141.3 
						306.5,140.7 306.9,140.1 307.3,139.5 307.7,138.9 308.1,138.2 308.6,137.7 308.9,137 309.3,136.4 309.6,135.8 					"/>
				</g>
				<g>
					<polygon fill="#FFFFFF" points="303.8,126.9 303.1,127.2 302.5,127.5 301.9,127.9 301.2,128.3 300.6,128.6 299.9,129 
						299.3,129.4 298.7,129.7 298,130 297.4,130.4 296.7,130.8 296,131.1 295.4,131.6 294.8,131.9 295.2,132.5 295.7,133.1 
						296.1,133.7 296.6,134.3 297,134.9 297.5,135.5 298.1,135.1 298.7,134.7 299.3,134.3 299.9,133.9 300.5,133.5 301.2,133.1 
						301.8,132.7 302.4,132.3 303,131.9 303.6,131.5 304.2,131.1 304.9,130.7 305.5,130.3 306.1,129.9 305.7,129.3 305.2,128.6 
						304.7,128.1 304.2,127.5 					"/>
				</g>
				<g>
					<polygon fill="#FFFFFF" points="274.1,163.1 273.8,162.3 273.6,161.6 273.5,160.9 273.4,160.1 273.2,159.4 273.3,158.6 
						273.3,157.8 273.2,157.1 273.1,156.3 273,155.6 272.9,154.8 272.9,154.1 273.1,153.3 272.9,152.6 273,151.8 272.5,152.6 
						272,153.4 271.9,154.1 271.9,154.8 271.9,155.6 272,156.3 271.9,157.1 272,157.9 271.9,158.6 271.8,159.4 271.8,160.2 
						271.6,160.9 271.3,161.7 271.3,162.4 271.2,163.2 270.9,163.9 270.3,164.5 269.9,165.1 269.2,165.6 268.5,166 267.9,166.5 
						267.2,166.8 266.6,167.2 265.8,167.3 265.1,167.5 264.5,167.8 263.7,168 263,168.1 262.3,168.3 261.5,168.4 260.8,168.4 
						259.9,168.4 260,169 260,169.7 260,170.3 259.9,171.1 260.7,170.9 261.5,171.1 262.2,171.1 263,171.1 263.7,170.9 264.5,171.1 
						265.2,171 266,171.1 266.7,171.1 267.5,171 268.2,171.1 269,171.1 269.7,170.9 270.5,170.9 271.2,171 272,170.9 272.7,170.9 
						273.5,170.9 274.2,170.9 275,171 275.7,171.1 276.5,171 277.2,171 278,170.9 278.7,170.9 279.5,171 280.2,171.1 281,170.9 
						281.7,170.9 282.5,171.1 283.2,171.1 284,171 284.7,170.9 285.5,171 286.2,171.1 287,171 286.9,170.3 287.1,169.7 287,169 
						287,168.4 286.3,168.3 285.6,168.4 284.8,168.4 284.1,168.3 283.4,168.2 282.7,168.1 282,168 281.3,167.8 280.6,167.7 
						279.9,167.5 279.3,167.2 278.6,167 277.9,166.7 277.2,166.4 276.6,165.9 276,165.4 275.4,164.9 274.8,164.4 274.4,163.7 					
						"/>
				</g>
			</g>
		</g>
		<g>
			<g>
				<g>
					<polygon fill="#FFFFFF" points="324.6,104.8 324.9,105.5 325.1,106.2 325,107 325.3,107.7 325.3,108.5 325.2,109.3 325.3,110 
						325.1,110.8 325.1,111.6 325.2,112.3 325.2,113.1 324.8,113.8 325,114.5 324.9,115.3 324.8,116 324.9,116.8 324.6,117.5 
						324.7,118.3 324.5,119 324.5,119.8 324.5,120.5 324.4,121.3 324.4,122 324.4,122.8 324.1,123.5 324.2,124.3 324.2,125 
						324.1,125.8 324,126.5 324.7,126.1 325.4,125.7 326.1,125.4 326.8,125.1 327,124.4 326.9,123.7 327,122.9 327,122.2 
						327.3,121.5 327.2,120.7 327.3,120 327.4,119.2 327.3,118.5 327.4,117.8 327.5,117 327.4,116.3 327.7,115.6 327.6,114.8 
						327.6,114 327.7,113.3 327.8,112.6 327.8,111.8 327.8,111.1 327.9,110.3 328.2,109.6 328.1,108.8 328.3,108.1 328.5,107.4 
						328.6,106.6 329,106 329.3,105.4 329.7,104.8 330.1,104.2 330.7,103.8 331.4,103.6 332,103.3 332.6,102.9 333.3,102.7 
						334,102.5 334.7,102.2 334.5,101.6 334.1,101 334,100.4 334.5,99.9 334.9,99.3 334.3,99.3 333.6,99 332.8,99.2 332.1,99.1 
						331.4,99 330.6,99 329.9,98.8 329.2,98.9 328.5,98.6 327.7,98.8 327,98.5 326.3,98.7 325.6,98.4 324.8,98.4 324.1,98.5 
						323.4,98.4 322.6,98.4 321.9,98.4 321.2,98.2 320.4,98.2 319.7,98.2 319,98 318.3,97.9 317.5,97.9 316.8,97.8 316.1,97.8 
						315.3,97.9 314.6,97.8 313.8,97.6 313.9,98.4 313.7,99 313.7,99.7 314.4,99.8 315.2,100 315.9,100.1 316.6,100.2 317.4,100.2 
						318.1,100.4 318.9,100.5 319.5,100.8 320.2,101.1 320.9,101.3 321.6,101.7 322.1,102.2 322.8,102.5 323.4,102.9 324,103.4 
						324.3,104.1 					"/>
				</g>
				<g>
					<polygon fill="#FFFFFF" points="324.9,128.3 325.2,129.1 324.9,129.9 324.9,130.6 325,131.3 325.2,132.1 324.8,132.8 
						325,133.6 325.1,134.3 324.9,135 325,135.8 325.2,136.5 324.9,137.2 325.2,138 325.2,138.7 325.2,139.5 325.2,140.2 
						325.1,140.9 324.9,141.7 325.1,142.4 324.9,143.1 324.9,143.9 324.9,144.6 325.1,145.4 325.1,146.1 324.9,146.8 325,147.6 
						325,148.3 324.9,149.1 324.9,149.8 324.8,150.5 325.1,151.3 325,152 324.8,152.8 324.9,153.5 324.9,154.3 325,155 324.4,154.5 
						324.2,153.8 323.7,153.3 323.1,152.8 322.8,152.1 322.4,151.5 322,150.9 321.6,150.2 321.2,149.6 320.6,149.2 320.2,148.6 
						319.7,148 319.3,147.4 318.9,146.8 318.6,146.2 318,145.7 317.6,145 317.2,144.4 316.8,143.8 316.1,143.5 315.8,142.8 
						315.2,142.3 314.8,141.7 314.5,140.9 314,140.4 313.4,140 313.2,139.2 312.7,138.6 312.2,138.1 311.7,137.5 311.3,137 
						310.9,137.5 310.4,138 309.8,138.5 309.6,139.3 308.9,139.7 308.5,140.3 308,141 307.4,141.4 306.8,141.9 306.6,142.7 
						306,143.2 305.6,143.7 305.1,144.3 304.4,144.9 305.1,145.4 305.3,146.1 305.9,146.7 306.5,147.1 306.7,147.9 307.3,148.4 
						307.6,149.1 308.2,149.6 308.5,150.2 309.2,150.7 309.6,151.3 309.9,152 310.3,152.6 310.8,153.2 311.2,153.8 311.7,154.3 
						312.1,155 312.6,155.5 313.2,156 313.6,156.7 313.8,157.4 314.4,158 314.9,158.5 315.5,159 315.7,159.7 316.2,160.3 
						316.8,160.8 317.2,161.4 317.5,162.1 318,162.7 318.4,163.3 319.1,163.7 319.5,164.4 319.9,165 320.3,165.6 320.8,166.2 
						321.3,166.8 321.7,167.4 322.3,167.9 322.5,168.7 323.1,169 323.8,168.9 324.4,168.4 324.9,167.8 325.4,167.2 326.2,167 
						326.9,166.5 327.5,166 327.9,165.4 328.1,164.7 328.2,164 328,163.2 328.1,162.5 328,161.8 327.9,161 328.2,160.3 327.9,159.5 
						328,158.8 328,158.1 327.8,157.3 328.2,156.6 328,155.9 327.8,155.1 327.8,154.4 328.2,153.6 327.9,152.9 327.9,152.2 
						328,151.4 327.8,150.7 328.2,150 327.9,149.2 328.1,148.5 328,147.7 328,147 328,146.3 328,145.5 327.9,144.8 328.2,144 
						328,143.3 327.9,142.6 328,141.8 328,141.1 327.9,140.4 327.8,139.6 327.8,138.9 328,138.1 328.2,137.4 327.8,136.7 328,135.9 
						327.9,135.2 328.2,134.4 328.1,133.7 328.1,132.9 328.1,132.2 327.9,131.5 328,130.7 328,130 327.8,129.2 328.2,128.5 
						328,127.8 327.3,128 326.5,128.1 325.8,128.3 					"/>
				</g>
			</g>
		</g>
		<g>
			<g>
				<g>
					<polygon fill="#FFFFFF" points="272,134 272.1,134.7 271.9,135.5 271.9,136.2 271.9,137 272,137.7 272,138.5 272.1,139.2 
						272.1,140 272.1,140.7 272,141.4 271.9,142.2 272.1,142.9 272.1,143.7 272,144.4 272,145.2 272,145.9 272,146.7 272.1,147.4 
						272,148.2 272,148.9 272,149.7 272,150.4 272.1,151.2 272,151.9 272,152.6 272.3,152 272.7,151.5 272.9,150.9 273.1,150.2 
						272.9,149.5 273.1,148.7 273,148 273,147.3 273.1,146.5 273.1,145.8 272.9,145.1 273,144.3 273.1,143.6 273,142.9 272.9,142.1 
						273.1,141.4 273,140.7 273,139.9 273,139.2 273,138.4 272.9,137.7 273.1,137 272.9,136.2 273,135.5 273,134.7 273,134.1 					
						"/>
				</g>
				<g>
					<polygon fill="#FFFFFF" points="292.6,112.2 292.1,112.6 291.9,113.2 291.5,112.6 291.2,111.8 290.9,111.1 290.8,110.3 
						290.3,109.7 290.4,109.4 290,108.8 289.7,108.1 289.2,107.5 288.7,107 288.1,106.5 287.7,105.9 287.4,105.1 286.8,104.7 
						286.5,104 285.9,103.5 285.5,102.9 285.1,102.2 284.6,101.6 284.4,100.9 283.7,100.5 283.5,99.7 282.8,99.3 282.5,98.6 
						281.9,98.1 281.2,98.2 280.5,98.2 279.7,97.9 279,97.9 278.2,97.9 277.5,98.1 276.7,97.8 276,98.2 275.2,98.1 274.5,97.8 
						273.7,98 273,97.9 272.3,98 271.5,98.2 270.8,97.8 270,98 269.3,98.2 268.5,97.8 267.8,97.9 267,98.2 266.3,98.1 265.5,97.9 
						264.8,97.9 264,98.1 263.3,98 262.5,97.8 261.8,98 261.1,98.1 260.9,98.8 260.9,99.6 261,100.5 261.8,100.6 262.5,100.6 
						263.3,100.4 264,100.4 264.8,100.6 265.5,100.7 266.3,100.7 267,101 267.7,101.1 268.5,101.2 269,101.7 269.6,102.2 
						270.2,102.8 270.4,103.5 270.7,104.2 271,104.9 270.9,105.7 271.3,106.4 271.1,107.2 271.3,107.9 271.6,108.6 271.5,109.4 
						271.9,110.1 271.7,110.9 271.8,111.6 272,112.4 272,113.1 271.9,113.9 272.1,114.6 272.1,115.4 272.1,116.2 272,116.9 
						272.2,117.7 272.1,118.4 271.8,119.1 272,119.9 271.9,120.6 272,121.4 271.8,122.1 272.2,122.9 272,123.6 272,124.4 
						272.2,125.1 271.9,125.9 272,126.7 271.9,127.4 272.1,128.2 271.8,128.9 271.9,129.7 272,130.5 273.1,130 272.9,129.2 
						273.2,128.5 273,127.8 273.2,127 273,126.3 273,125.6 272.9,124.8 272.9,124.1 273.1,123.4 272.9,122.6 273.1,121.9 
						272.9,121.2 272.9,120.4 273,119.7 272.9,119 272.9,118.2 272.8,117.5 273.2,116.8 273,116 273,115.3 272.9,114.6 273,113.8 
						273,113.1 272.9,112.4 272.9,111.6 273.1,110.9 273.1,110.1 273.1,109.4 273.1,108.7 273,107.9 273.1,107.2 273.1,106.5 
						273.1,105.7 272.8,105 273.1,104.4 273.3,104.9 274,105.3 274.3,106 274.9,106.5 275.1,107.3 275.6,107.8 276.2,108.3 
						276.4,109 276.9,109.5 277.4,110.1 277.9,110.6 278.4,111.2 278.8,111.8 279.4,112.3 279.8,112.9 280.2,113.5 280.5,114.2 
						281.2,114.6 281.6,115.2 282.1,115.8 282.3,116.6 282.7,117.1 283.2,117.7 283.8,118.2 284.1,118.8 284.8,119.2 285.2,119.8 
						285.7,120.4 286,121.1 286.3,121.8 287,122.2 287.5,122.7 287.8,123.4 288.2,124.1 288.7,124.6 289.2,125.1 289.7,125.7 
						290.1,126.3 290.6,126.9 291,127.5 291.4,128.1 292,128.6 292.4,129.3 292.9,129.8 293.3,130.3 293.8,130 294.3,129.4 
						295.1,129.2 295.5,128.5 296.2,128.3 296.7,127.7 297.4,127.3 298,126.9 298.6,126.4 299,125.7 299.7,125.5 300.3,125.1 
						300.9,124.5 301.3,124 301.1,123.4 300.6,122.9 300.1,122.3 299.7,121.7 299.2,121.1 298.7,120.6 298.5,119.8 297.8,119.4 
						297.3,118.8 296.9,118.2 296.4,117.7 296.1,117 295.8,116.3 295.2,115.8 294.9,115.1 294.5,114.5 294,113.9 293.4,113.5 
						293,112.8 					"/>
				</g>
			</g>
		</g>
	</g>
	<g>
		<g>
			<path fill="#FFFFFF" d="M136.5,213.8h0.3c-0.2,0.7-0.6,1.3-1,1.7s-0.9,0.6-1.3,0.6c-0.4,0-0.7-0.1-0.9-0.4s-0.4-0.7-0.4-1.2
				c0-0.6,0.2-1.3,0.5-2.1s0.8-1.4,1.4-1.9c0.6-0.5,1.1-0.8,1.6-0.8c0.3,0,0.5,0.1,0.7,0.2c0.2,0.2,0.3,0.4,0.3,0.6
				c0,0.3-0.1,0.5-0.4,0.5c-0.3,0-0.4-0.2-0.4-0.6c0-0.3-0.1-0.4-0.3-0.4c-0.3,0-0.6,0.3-0.9,0.8c-0.4,0.5-0.7,1.2-0.9,2
				c-0.3,0.8-0.4,1.5-0.4,1.9c0,0.3,0.1,0.5,0.2,0.7c0.1,0.2,0.3,0.2,0.5,0.2c0.3,0,0.6-0.2,0.9-0.5
				C136.1,214.8,136.3,214.4,136.5,213.8z"/>
			<path fill="#FFFFFF" d="M146.4,214.4h0.3c-0.4,1.1-1,1.7-1.7,1.7c-0.2,0-0.4-0.1-0.5-0.2c-0.1-0.1-0.2-0.3-0.2-0.6
				c0-0.4,0.1-1,0.4-1.8c-0.9,1.7-1.7,2.6-2.5,2.6c-0.3,0-0.5-0.1-0.7-0.3s-0.3-0.4-0.3-0.7c0-0.3,0.1-0.7,0.3-1.4l0.9-2.6
				c0.1-0.4,0.2-0.6,0.2-0.7c0-0.1-0.1-0.2-0.2-0.2c-0.3,0-0.6,0.4-1,1.2h-0.4c0.2-0.5,0.5-0.9,0.8-1.3c0.3-0.3,0.6-0.5,0.9-0.5
				c0.2,0,0.4,0.1,0.5,0.2c0.1,0.1,0.2,0.3,0.2,0.5c0,0.2-0.1,0.5-0.3,1l-0.9,2.7c-0.2,0.5-0.3,0.9-0.3,1c0,0.2,0,0.3,0.1,0.3
				c0.1,0.1,0.2,0.1,0.3,0.1c0.4,0,0.9-0.5,1.5-1.4c0.6-0.9,1.2-2.3,1.7-4.1l0.1-0.4h0.9l-1.3,4.2c-0.2,0.7-0.3,1.1-0.3,1.2
				c0,0.1,0,0.2,0.1,0.3c0,0.1,0.1,0.1,0.2,0.1C145.7,215.6,146.1,215.2,146.4,214.4z"/>
			<path fill="#FFFFFF" d="M150.6,211.7h-0.3c0.2-0.5,0.5-1,0.8-1.4c0.3-0.4,0.6-0.6,0.9-0.6c0.2,0,0.4,0.1,0.5,0.3
				c0.1,0.2,0.2,0.4,0.2,0.8c0,0.4-0.1,1-0.3,1.8c0,0,0.1-0.2,0.2-0.5c0.4-0.8,0.7-1.4,0.9-1.8c0.3-0.4,0.5-0.5,0.8-0.5
				c0.2,0,0.3,0.1,0.4,0.2c0.1,0.1,0.2,0.2,0.2,0.4c0,0.1,0,0.3-0.1,0.4s-0.2,0.1-0.3,0.1c-0.1,0-0.3-0.1-0.4-0.2
				c-0.1-0.1-0.1-0.1-0.2-0.1c-0.2,0-0.6,0.6-1.1,1.8s-0.9,2.3-1.2,3.3l-0.2,0.5h-0.9l1.2-3.9c0.2-0.7,0.3-1.2,0.3-1.5
				c0-0.1,0-0.2-0.1-0.3c0-0.1-0.1-0.1-0.2-0.1c-0.2,0-0.4,0.2-0.6,0.5S150.7,211.4,150.6,211.7z"/>
			<path fill="#FFFFFF" d="M162.3,209.8h0.9l-1.3,4.3c-0.2,0.6-0.3,1-0.3,1.1c0,0.1,0,0.2,0.1,0.2c0,0.1,0.1,0.1,0.2,0.1
				c0.3,0,0.7-0.4,1.2-1.2h0.3c-0.2,0.4-0.5,0.8-0.8,1.2c-0.4,0.4-0.7,0.5-1,0.5c-0.2,0-0.4-0.1-0.5-0.3c-0.1-0.2-0.2-0.4-0.2-0.6
				c0-0.2,0-0.5,0.1-0.8c-0.2,0.4-0.5,0.7-1,1.1s-0.8,0.6-1.2,0.6c-0.3,0-0.6-0.1-0.9-0.4c-0.2-0.3-0.4-0.7-0.4-1.2
				c0-0.7,0.2-1.4,0.6-2.1c0.4-0.8,0.9-1.4,1.5-1.9s1.1-0.8,1.6-0.8c0.3,0,0.5,0.1,0.6,0.2s0.2,0.3,0.3,0.5L162.3,209.8z
				 M158.5,214.7c0,0.3,0,0.6,0.1,0.7s0.2,0.2,0.4,0.2c0.3,0,0.7-0.2,1.2-0.7c0.5-0.5,0.8-1.2,1.2-2.2s0.5-1.6,0.5-2
				c0-0.2-0.1-0.4-0.2-0.5s-0.3-0.2-0.4-0.2c-0.6,0-1.2,0.6-1.8,1.8C158.8,213,158.5,213.9,158.5,214.7z"/>
			<path fill="#FFFFFF" d="M170.5,209.9l-0.1,0.3h-1.1l-1,3.2c-0.3,1-0.5,1.7-0.5,1.8c0,0.1,0,0.2,0.1,0.3c0.1,0.1,0.1,0.1,0.2,0.1
				c0.2,0,0.4-0.2,0.7-0.5c0.3-0.3,0.5-0.7,0.8-1.2h0.3c-0.3,0.7-0.6,1.3-1,1.7c-0.4,0.4-0.7,0.6-1,0.6c-0.2,0-0.4-0.1-0.6-0.3
				c-0.1-0.2-0.2-0.4-0.2-0.7c0-0.2,0.2-0.8,0.5-1.8l0.9-3.1h-1l0.1-0.3h1l0.7-2.2h0.9l-0.7,2.2H170.5z"/>
			<path fill="#FFFFFF" d="M176.7,214h0.4c-0.6,1.4-1.4,2.1-2.4,2.1c-0.4,0-0.7-0.1-1-0.4c-0.3-0.3-0.4-0.7-0.4-1.1
				c0-0.6,0.2-1.3,0.5-2c0.3-0.8,0.8-1.4,1.4-2c0.6-0.6,1.1-0.8,1.6-0.8c0.3,0,0.5,0.1,0.6,0.3c0.1,0.2,0.2,0.4,0.2,0.6
				c0,0.5-0.3,1-0.8,1.5c-0.5,0.5-1.3,1-2.4,1.4c-0.1,0.4-0.2,0.8-0.2,1.2c0,0.3,0.1,0.5,0.2,0.7s0.3,0.2,0.5,0.2
				C175.6,215.6,176.2,215.1,176.7,214z M174.5,213.1c0.6-0.3,1.2-0.7,1.7-1.2c0.5-0.5,0.8-0.9,0.8-1.4c0-0.2,0-0.3-0.1-0.4
				c-0.1-0.1-0.2-0.1-0.3-0.1c-0.3,0-0.6,0.3-1,0.9S174.8,212.2,174.5,213.1z"/>
			<path fill="#FFFFFF" d="M186.1,214.5h0.4c-0.2,0.4-0.5,0.8-0.8,1.1c-0.3,0.3-0.6,0.5-0.9,0.5c-0.3,0-0.5-0.1-0.6-0.2
				s-0.2-0.4-0.2-0.7c0-0.1,0-0.3,0-0.4c-0.7,0.9-1.3,1.3-1.9,1.3c-0.3,0-0.6-0.1-0.8-0.4s-0.4-0.7-0.4-1.2c0-0.7,0.2-1.5,0.6-2.3
				c0.4-0.8,0.9-1.4,1.4-1.9c0.6-0.4,1.1-0.7,1.5-0.7c0.2,0,0.4,0.1,0.6,0.2c0.2,0.1,0.3,0.3,0.4,0.5l0.9-2.9
				c0.1-0.4,0.2-0.6,0.2-0.6c0-0.1,0-0.2-0.1-0.2c-0.1,0-0.2-0.1-0.5-0.1h-0.2l0.1-0.3c0.7,0,1.3-0.1,1.7-0.3h0.2l-2.3,7.7
				c-0.3,0.9-0.4,1.5-0.4,1.7c0,0.1,0,0.2,0.1,0.3s0.1,0.1,0.2,0.1c0.1,0,0.3-0.1,0.5-0.3C185.7,215.1,185.9,214.9,186.1,214.5z
				 M181.7,214.8c0,0.3,0,0.5,0.1,0.6c0.1,0.1,0.2,0.2,0.4,0.2c0.3,0,0.7-0.2,1.1-0.7s0.8-1.2,1.2-2.3c0.4-1,0.5-1.7,0.5-2
				c0-0.2-0.1-0.3-0.2-0.5c-0.1-0.1-0.3-0.2-0.5-0.2c-0.3,0-0.6,0.2-1,0.6c-0.3,0.4-0.7,1-1.1,1.9
				C181.9,213.5,181.7,214.2,181.7,214.8z"/>
			<path fill="#FFFFFF" d="M199,211.1c0.6-1,1.3-1.4,1.9-1.4c0.4,0,0.8,0.2,1,0.5s0.3,0.7,0.3,1.2c0,0.6-0.2,1.3-0.5,2
				s-0.8,1.4-1.4,1.9c-0.6,0.5-1.2,0.8-1.8,0.8c-0.4,0-0.7-0.1-1-0.4c-0.3-0.2-0.4-0.6-0.4-1c0-0.3,0.1-0.7,0.3-1.4l1.8-5.9
				c0.1-0.4,0.2-0.7,0.2-0.8c0-0.1,0-0.2-0.1-0.2c-0.1,0-0.2-0.1-0.5-0.1h-0.2l0.1-0.3c0.8,0,1.3-0.1,1.7-0.3h0.2L199,211.1z
				 M197.9,215.1c0,0.2,0.1,0.4,0.2,0.5c0.1,0.1,0.3,0.2,0.5,0.2c0.7,0,1.3-0.6,1.9-1.8c0.6-1.2,0.9-2.2,0.9-2.9
				c0-0.3-0.1-0.5-0.2-0.7s-0.3-0.3-0.5-0.3c-0.3,0-0.7,0.2-1.1,0.7c-0.4,0.5-0.8,1.2-1.2,2.2C198.1,214,197.9,214.7,197.9,215.1z"
				/>
			<path fill="#FFFFFF" d="M206.3,211.7H206c0.1-0.7,0.2-1.2,0.5-1.5c0.2-0.3,0.5-0.5,0.8-0.5c0.4,0,0.6,0.2,0.9,0.7
				c0.2,0.4,0.3,1.1,0.3,2c0,1.2-0.1,2.2-0.4,3.2c0.5-0.5,0.9-1.2,1.4-2c0.5-0.8,0.7-1.5,0.7-2.1c0-0.3-0.1-0.5-0.2-0.8
				c-0.2-0.3-0.2-0.5-0.2-0.6c0-0.1,0-0.2,0.1-0.3c0.1-0.1,0.2-0.1,0.3-0.1c0.2,0,0.3,0.1,0.4,0.3c0.1,0.2,0.2,0.5,0.2,0.9
				c0,0.6-0.2,1.3-0.5,2.1c-0.4,0.8-0.9,1.7-1.6,2.5c-0.7,0.8-1.4,1.6-2.1,2.2c-0.7,0.7-1.3,1.1-1.8,1.4c-0.5,0.3-1,0.4-1.5,0.4
				c-0.6,0-0.9-0.2-0.9-0.5c0-0.1,0.1-0.3,0.2-0.3c0.1-0.1,0.3-0.1,0.4-0.1c0.1,0,0.3,0,0.5,0.1c0.3,0.1,0.6,0.1,0.8,0.1
				c0.3,0,0.6-0.1,0.9-0.2s0.6-0.4,1-0.8c0.4-0.4,0.7-0.8,0.9-1.1c0.2-0.3,0.3-0.9,0.4-1.6c0.1-0.8,0.2-1.6,0.2-2.5
				c0-0.7-0.1-1.2-0.2-1.6c-0.1-0.4-0.3-0.6-0.5-0.6C206.6,210.3,206.4,210.7,206.3,211.7z"/>
		</g>
		<g>
			<path fill="#FFFFFF" d="M96.3,238.1l3-2.7c0.7-0.6,1.1-1.1,1.1-1.3c0-0.4-0.4-0.6-1.1-0.6v-0.3h3.7v0.3c-0.3,0-0.6,0.1-0.9,0.2
				c-0.3,0.1-0.6,0.3-0.9,0.5c-0.3,0.2-0.7,0.6-1.4,1.3l-1.8,1.7l3.7,3.7c0.8,0.9,1.4,1.4,1.7,1.6c0.3,0.2,0.7,0.3,1.1,0.3v0.3h-5.1
				v-0.3h0.2c0.6,0,0.9,0,1-0.1s0.2-0.2,0.2-0.3c0-0.2-0.4-0.7-1.1-1.4L97,238l-0.7,0.6v1.8c0,0.8,0,1.3,0.1,1.5
				c0,0.2,0.1,0.4,0.3,0.5c0.2,0.1,0.5,0.2,0.9,0.2h0.2v0.3h-4.5v-0.3h0.3c0.4,0,0.7-0.1,0.9-0.2c0.2-0.1,0.3-0.3,0.3-0.5
				c0-0.2,0.1-0.8,0.1-1.6v-4.9c0-0.8,0-1.3-0.1-1.6c-0.1-0.2-0.2-0.4-0.3-0.5c-0.2-0.1-0.5-0.1-1.1-0.1v-0.3h4.4v0.3h-0.2
				c-0.5,0-0.8,0-1,0.1c-0.2,0.1-0.3,0.2-0.3,0.4c-0.1,0.2-0.1,0.7-0.1,1.6V238.1z"/>
			<path fill="#FFFFFF" d="M117,239.3h-3.8L113,240c-0.4,0.9-0.6,1.5-0.6,1.8c0,0.3,0.1,0.5,0.3,0.7c0.2,0.2,0.5,0.2,0.8,0.2v0.3
				h-2.9v-0.3c0.4-0.1,0.8-0.2,1-0.5s0.5-0.7,0.8-1.5c0-0.1,0.1-0.4,0.4-0.8l2.9-6.9h0.3l3.3,7.9l0.5,1c0.1,0.2,0.2,0.4,0.4,0.6
				c0.2,0.1,0.4,0.2,0.8,0.3v0.3h-3.9v-0.3c0.5,0,0.8,0,1-0.1c0.2-0.1,0.3-0.2,0.3-0.4c0-0.1-0.1-0.4-0.3-1L117,239.3z M116.9,239
				l-1.8-4.2l-1.7,4.2H116.9z"/>
			<path fill="#FFFFFF" d="M135.6,240.1l-0.1,2.9h-8.4v-0.3h0.3c0.4,0,0.7-0.1,0.9-0.2c0.2-0.1,0.3-0.3,0.3-0.5
				c0-0.2,0.1-0.8,0.1-1.6v-4.9c0-0.8,0-1.3-0.1-1.5s-0.1-0.4-0.3-0.5c-0.1-0.1-0.5-0.1-1-0.1h-0.2v-0.3h4.8v0.3h-0.4
				c-0.5,0-0.8,0-1,0.1c-0.2,0.1-0.3,0.2-0.3,0.4c-0.1,0.2-0.1,0.7-0.1,1.6v5.2c0,0.7,0,1.2,0.1,1.3c0,0.2,0.1,0.3,0.3,0.4
				c0.2,0.1,0.5,0.1,1.1,0.1h0.8c0.6,0,1.1-0.1,1.4-0.2c0.3-0.1,0.6-0.3,0.8-0.7c0.3-0.4,0.5-0.9,0.7-1.7H135.6z"/>
			<path fill="#FFFFFF" d="M142.1,233.4v-0.3h4.5v0.3h-0.2c-0.5,0-0.8,0-1,0.1c-0.2,0.1-0.3,0.2-0.3,0.4c-0.1,0.2-0.1,0.7-0.1,1.6
				v4.9c0,0.8,0,1.3,0.1,1.5c0,0.2,0.1,0.4,0.3,0.5s0.5,0.2,0.9,0.2h0.3v0.3h-4.5v-0.3h0.3c0.4,0,0.7-0.1,0.9-0.2
				c0.2-0.1,0.3-0.3,0.3-0.5c0-0.2,0.1-0.8,0.1-1.6v-4.9c0-0.8,0-1.3-0.1-1.5s-0.1-0.4-0.3-0.5c-0.2-0.1-0.5-0.1-1-0.1H142.1z"/>
			<path fill="#FFFFFF" d="M162.2,243.2l-7-9.3v6.9c0,0.6,0,0.9,0.1,1.1c0.1,0.2,0.2,0.3,0.5,0.5c0.3,0.2,0.7,0.2,1.2,0.2v0.3h-3.7
				v-0.3c0.5,0,0.8-0.1,1.1-0.3c0.2-0.1,0.4-0.3,0.4-0.4s0.1-0.5,0.1-1.1v-5.3c0-0.8,0-1.3-0.1-1.5c-0.1-0.3-0.2-0.4-0.3-0.5
				c-0.2-0.1-0.5-0.1-1-0.1v-0.3h2.9l5.9,7.8v-5.9c0-0.4,0-0.7-0.1-0.9s-0.3-0.3-0.6-0.4c-0.3-0.1-0.6-0.2-1-0.2v-0.3h3.6v0.3
				c-0.4,0-0.7,0.1-1,0.2c-0.2,0.1-0.4,0.3-0.5,0.5c-0.1,0.2-0.1,0.5-0.1,0.9v8.2H162.2z"/>
			<path fill="#FFFFFF" d="M190.2,243.2h-0.3l-3-8.2l-2.6,8.2h-0.4l-2.4-7.7c-0.2-0.7-0.4-1.2-0.5-1.4c-0.1-0.2-0.2-0.4-0.4-0.5
				c-0.2-0.1-0.4-0.2-0.8-0.2v-0.3h3.7v0.3c-0.4,0-0.7,0.1-0.9,0.2c-0.1,0.1-0.2,0.2-0.2,0.4c0,0.2,0.1,0.6,0.3,1.2l1.8,5.8l2.6-8
				h0.4l2.9,8l1.5-5.3c0.2-0.7,0.3-1.2,0.3-1.4c0-0.6-0.3-1-1-1v-0.3h2.7v0.3c-0.4,0-0.7,0.2-0.9,0.4s-0.4,0.9-0.7,1.9L190.2,243.2z
				"/>
			<path fill="#FFFFFF" d="M200.3,238c0-1.5,0.5-2.8,1.5-3.7c1-0.9,2.3-1.4,3.8-1.4c1.5,0,2.8,0.5,3.9,1.4c1,0.9,1.6,2.2,1.6,3.7
				c0,1.5-0.5,2.8-1.5,3.7c-1,0.9-2.3,1.4-3.9,1.4c-1.6,0-2.9-0.5-3.9-1.4S200.3,239.5,200.3,238z M202,238c0,1.6,0.3,2.8,1,3.6
				c0.6,0.8,1.6,1.2,2.9,1.2c1.1,0,2-0.4,2.6-1.2c0.6-0.8,1-2,1-3.6c0-1.5-0.3-2.7-1-3.5c-0.6-0.8-1.6-1.2-2.8-1.2
				c-1.2,0-2.1,0.4-2.7,1.2C202.3,235.3,202,236.5,202,238z"/>
			<path fill="#FFFFFF" d="M218.6,238c0-1.5,0.5-2.8,1.5-3.7c1-0.9,2.3-1.4,3.8-1.4c1.5,0,2.8,0.5,3.9,1.4c1,0.9,1.6,2.2,1.6,3.7
				c0,1.5-0.5,2.8-1.5,3.7c-1,0.9-2.3,1.4-3.9,1.4c-1.6,0-2.9-0.5-3.9-1.4S218.6,239.5,218.6,238z M220.3,238c0,1.6,0.3,2.8,1,3.6
				c0.6,0.8,1.6,1.2,2.9,1.2c1.1,0,2-0.4,2.6-1.2c0.6-0.8,1-2,1-3.6c0-1.5-0.3-2.7-1-3.5s-1.6-1.2-2.8-1.2c-1.2,0-2.1,0.4-2.7,1.2
				S220.3,236.5,220.3,238z"/>
			<path fill="#FFFFFF" d="M236.5,233.2l1.6-0.1c1.4-0.1,2.3-0.1,2.7-0.1c1.5,0,2.6,0.2,3.4,0.7c0.8,0.4,1.4,1.1,1.8,1.8
				c0.4,0.8,0.6,1.7,0.6,2.7c0,0.7-0.1,1.4-0.3,2c-0.2,0.6-0.5,1.1-0.9,1.5c-0.4,0.4-0.8,0.7-1.3,0.9c-0.5,0.2-1,0.3-1.4,0.4
				c-0.5,0.1-1.1,0.1-1.9,0.1h-4.4v-0.3h0.4c0.4,0,0.7-0.1,0.9-0.2c0.2-0.1,0.3-0.3,0.3-0.5c0-0.2,0.1-0.8,0.1-1.6v-4.8
				c0-0.8,0-1.3-0.1-1.5c0-0.2-0.1-0.4-0.3-0.5c-0.1-0.1-0.5-0.1-1-0.1h-0.3V233.2z M239.5,233.4v6.6c0,1,0,1.6,0.1,1.9
				c0,0.3,0.1,0.5,0.3,0.6c0.2,0.1,0.6,0.2,1.2,0.2c0.9,0,1.6-0.1,2.1-0.4c0.6-0.2,1-0.7,1.4-1.4c0.4-0.7,0.6-1.6,0.6-2.7
				c0-0.8-0.1-1.6-0.3-2.2c-0.2-0.7-0.5-1.2-0.9-1.6s-0.9-0.7-1.3-0.8c-0.5-0.1-1.1-0.2-1.9-0.2
				C240.3,233.3,239.9,233.3,239.5,233.4z"/>
		</g>
	</g>
</g>
</svg>
